<svg xmlns="http://www.w3.org/2000/svg" viewBox="0 0 400 340" width="400" height="340">

  <!-- Outer shield -->
  <path d="M200 18 L274 46 L274 128 Q274 190 200 224 Q126 190 126 128 L126 46 Z" fill="#1F3864"/>
  <!-- Gold ring -->
  <path d="M200 30 L266 56 L266 128 Q266 182 200 212 Q134 182 134 128 L134 56 Z" fill="#C9A227"/>
  <!-- Inner navy -->
  <path d="M200 42 L258 66 L258 128 Q258 174 200 200 Q142 174 142 128 L142 66 Z" fill="#1F3864"/>
  <!-- Inner gold ring -->
  <path d="M200 50 L252 72 L252 128 Q252 168 200 192 Q148 168 148 128 L148 72 Z"
        fill="none" stroke="#C9A227" stroke-width="1"/>

  <!-- E monogram -->
  <text x="200" y="138" text-anchor="middle" dominant-baseline="central"
        font-family="Georgia, 'Times New Roman', serif"
        font-size="72" font-weight="700" fill="#C9A227">Е</text>

  <!-- Accent dots -->
  <circle cx="165" cy="138" r="3" fill="#C9A227" opacity="0.6"/>
  <circle cx="235" cy="138" r="3" fill="#C9A227" opacity="0.6"/>

  <!-- Company name -->
  <text x="200" y="260" text-anchor="middle"
        font-family="Georgia, 'Times New Roman', serif"
        font-size="22" font-weight="700" fill="#1F3864" letter-spacing="8">ЕГЕР ООД</text>

  <!-- Tagline -->
  <text x="200" y="284" text-anchor="middle" dominant-baseline="central"
        font-family="Arial, Helvetica, sans-serif"
        font-size="10" fill="#888888" letter-spacing="2.5">НАДЕЖДНОСТ ОТ ГОДИНИ</text>

  <!-- Decorative lines BELOW tagline -->
  <line x1="18" y1="300" x2="110" y2="300" stroke="#C9A227" stroke-width="1"/>
  <line x1="290" y1="300" x2="382" y2="300" stroke="#C9A227" stroke-width="1"/>
  <circle cx="200" cy="300" r="2.5" fill="#C9A227"/>

</svg>
